<?xml version="1.0" encoding="UTF-8" standalone="no"?>
<!-- Created with Inkscape (http://www.inkscape.org/) -->

<svg
   width="1280"
   height="720"
   viewBox="0 0 338.66663 190.49998"
   version="1.1"
   id="svg5"
   xml:space="preserve"
   sodipodi:docname="droidify-banner.svg"
   xmlns:inkscape="http://www.inkscape.org/namespaces/inkscape"
   xmlns:sodipodi="http://sodipodi.sourceforge.net/DTD/sodipodi-0.dtd"
   xmlns="http://www.w3.org/2000/svg"
   xmlns:svg="http://www.w3.org/2000/svg"><sodipodi:namedview
     id="namedview7"
     pagecolor="#505050"
     bordercolor="#eeeeee"
     borderopacity="1"
     inkscape:showpageshadow="0"
     inkscape:pageopacity="0"
     inkscape:pagecheckerboard="0"
     inkscape:deskcolor="#505050"
     inkscape:document-units="mm"
     showgrid="false"
     inkscape:zoom="0.74564394"
     inkscape:cx="446.59385"
     inkscape:cy="450.61722"
     inkscape:window-width="1920"
     inkscape:window-height="1017"
     inkscape:window-x="-8"
     inkscape:window-y="-8"
     inkscape:window-maximized="1"
     inkscape:current-layer="layer1" /><defs
     id="defs2" /><g
     inkscape:label="Layer 1"
     inkscape:groupmode="layer"
     id="layer1"><rect
       style="fill:#191c1a;fill-opacity:0.964706;stroke-width:8.92799;stroke-linecap:round"
       id="rect1583"
       width="338.66666"
       height="190.5"
       x="0"
       y="-5.5511151e-17" /><g
       inkscape:label="Layer 1"
       id="layer1-4"
       transform="matrix(1.3473266,0,0,1.3473266,-68.266535,-54.505414)"><path
         style="fill:none;fill-opacity:0.964706;stroke:#7ada9d;stroke-width:6.61447;stroke-linecap:round;stroke-opacity:1"
         id="path7456"
         sodipodi:type="arc"
         sodipodi:cx="105.96567"
         sodipodi:cy="109.49587"
         sodipodi:rx="22.54248"
         sodipodi:ry="22.54248"
         sodipodi:start="2.6011732"
         sodipodi:end="0.54585553"
         sodipodi:arc-type="arc"
         d="m 86.63565,121.09388 a 22.54248,22.54248 0 0 1 4.774563,-28.811437 22.54248,22.54248 0 0 1 29.204267,0.07938 22.54248,22.54248 0 0 1 4.61787,28.836969"
         sodipodi:open="true" /><path
         id="rect11866"
         style="fill:#ffb780;fill-opacity:0.964706;stroke:none;stroke-width:5.40899;stroke-linecap:round;stroke-opacity:1"
         d="m 105.96562,115.09375 c -1.38674,0 -2.50315,1.38364 -2.50315,3.10249 v 11.89935 l -4.848753,-4.84876 c -0.909166,-0.90916 -2.373314,-0.90916 -3.28248,0 l -0.257484,0.25749 c -0.909166,0.90916 -0.909166,2.37331 0,3.28248 l 9.173127,9.17313 c 0.46597,0.46597 1.07776,0.6925 1.68578,0.68083 0.011,1.7e-4 0.022,0.002 0.0329,0.002 0.011,0 0.0219,-7e-4 0.0329,-0.002 0.60802,0.0117 1.21982,-0.21486 1.68578,-0.68083 l 9.17313,-9.17313 c 0.90916,-0.90917 0.90916,-2.37332 0,-3.28248 l -0.25749,-0.25749 c -0.90916,-0.90916 -2.37331,-0.90916 -3.28247,0 l -4.84876,4.84876 v -11.89935 c 0,-1.71885 -1.11641,-3.10249 -2.50315,-3.10249 z" /><circle
         style="fill:#7ada9d;fill-opacity:0.964706;stroke:none;stroke-width:5.42057;stroke-linecap:round;stroke-opacity:1"
         id="path14993"
         cx="99.48333"
         cy="104.11353"
         r="2.2489583" /><circle
         style="fill:#7ada9d;fill-opacity:0.964706;stroke:none;stroke-width:5.42057;stroke-linecap:round;stroke-opacity:1"
         id="circle14995"
         cx="113.24167"
         cy="104.11353"
         r="2.2489583" /><rect
         style="fill:#7ada9d;fill-opacity:0.964706;stroke:none;stroke-width:8.92799;stroke-linecap:round;stroke-opacity:1"
         id="rect15005"
         width="3.4395833"
         height="9.260417"
         x="150.00912"
         y="-28.951738"
         ry="1.4113488"
         transform="rotate(45)" /><rect
         style="fill:#7ada9d;fill-opacity:0.964706;stroke:none;stroke-width:8.92799;stroke-linecap:round;stroke-opacity:1"
         id="rect15007"
         width="3.4395833"
         height="9.260417"
         x="0.52526945"
         y="120.53213"
         ry="1.4113488"
         transform="matrix(-0.70710678,0.70710678,0.70710678,0.70710678,0,0)" /></g><g
       id="g9947"
       inkscape:groupmode="layer"><g
         id="g6682"
         transform="translate(0,21.636966)"><g
           aria-label="Droid-ify"
           id="text3942"
           style="font-size:19.7556px;fill:#7ada9d;stroke-width:8.92799;stroke-linecap:round"><path
             d="m 198.80472,65.2199 q 0,1.958197 -0.85852,3.549834 -0.84887,1.591638 -2.26688,2.46945 -0.98392,0.607716 -2.19935,0.877812 -1.20579,0.270097 -3.18327,0.270097 h -3.62701 V 58.023768 h 3.58842 q 2.10289,0 3.33762,0.308681 1.24437,0.299035 2.10289,0.829581 1.46623,0.916398 2.28617,2.440511 0.81993,1.524114 0.81993,3.617359 z m -1.99678,-0.02894 q 0,-1.688101 -0.58842,-2.845655 -0.58843,-1.157555 -1.75563,-1.823149 -0.84887,-0.482314 -1.80385,-0.665594 -0.95499,-0.192926 -2.28617,-0.192926 h -1.79421 v 11.083586 h 1.79421 q 1.37941,0 2.40192,-0.202572 1.03215,-0.202572 1.89067,-0.75241 1.07074,-0.684887 1.60129,-1.803856 0.54019,-1.11897 0.54019,-2.797424 z"
             style="stroke-width:8.928"
             id="path9949" /><path
             d="m 208.4703,63.589677 h -0.0965 q -0.40514,-0.09646 -0.791,-0.135048 -0.3762,-0.04823 -0.8971,-0.04823 -0.83923,0 -1.62058,0.376206 -0.78135,0.366559 -1.50482,0.954982 v 7.649508 h -1.8135 V 61.612188 h 1.8135 v 1.591637 q 1.08039,-0.868166 1.90032,-1.225078 0.82958,-0.366559 1.6881,-0.366559 0.47267,0 0.68489,0.02894 0.21222,0.01929 0.63665,0.08682 z"
             style="stroke-width:8.928"
             id="path9951" /><path
             d="m 219.36096,67.004463 q 0,2.633437 -1.35048,4.157551 -1.35048,1.524114 -3.61736,1.524114 -2.28617,0 -3.63665,-1.524114 -1.34083,-1.524114 -1.34083,-4.157551 0,-2.633437 1.34083,-4.15755 1.35048,-1.53376 3.63665,-1.53376 2.26688,0 3.61736,1.53376 1.35048,1.524113 1.35048,4.15755 z m -1.87138,0 q 0,-2.093244 -0.81993,-3.106105 -0.81994,-1.022506 -2.27653,-1.022506 -1.47588,0 -2.29581,1.022506 -0.81029,1.012861 -0.81029,3.106105 0,2.025721 0.81993,3.077167 0.81994,1.041799 2.28617,1.041799 1.44695,0 2.26688,-1.032153 0.82958,-1.041799 0.82958,-3.086813 z"
             style="stroke-width:8.928"
             id="path9953" /><path
             d="m 224.11658,59.808332 h -2.04501 v -1.881027 h 2.04501 z m -0.11575,12.578761 h -1.81351 V 61.612188 h 1.81351 z"
             style="stroke-width:8.928"
             id="path9955" /><path
             d="m 236.32879,72.387093 h -1.81351 v -1.128616 q -0.78135,0.67524 -1.63022,1.051445 -0.84887,0.376206 -1.84244,0.376206 -1.92926,0 -3.06752,-1.485529 -1.12862,-1.485528 -1.12862,-4.118965 0,-1.369773 0.38585,-2.440512 0.3955,-1.070738 1.0611,-1.823148 0.65594,-0.733118 1.52411,-1.11897 0.87781,-0.385851 1.8135,-0.385851 0.84888,0 1.50482,0.183279 0.65595,0.173633 1.37942,0.549839 v -4.668804 h 1.81351 z m -1.81351,-2.65273 v -6.183271 q -0.73312,-0.327974 -1.31189,-0.453376 -0.57878,-0.125402 -1.26367,-0.125402 -1.52411,0 -2.37298,1.061092 -0.84888,1.061092 -0.84888,3.009642 0,1.919612 0.65595,2.922826 0.65595,0.993568 2.10289,0.993568 0.7717,0 1.5627,-0.33762 0.791,-0.347267 1.47588,-0.887459 z"
             style="stroke-width:8.928"
             id="path9957" /><path
             d="m 245.60852,66.975524 h -6.01929 v -1.745978 h 6.01929 z"
             style="stroke-width:8.928"
             id="path9959" /><path
             d="m 250.81751,59.808332 h -2.04501 v -1.881027 h 2.04501 z m -0.11575,12.578761 h -1.8135 V 61.612188 h 1.8135 z"
             style="stroke-width:8.928"
             id="path9961" /><path
             d="m 260.0876,59.133091 h -0.0965 q -0.29904,-0.08682 -0.78135,-0.173633 -0.48232,-0.09646 -0.84888,-0.09646 -1.1672,0 -1.69774,0.5209 -0.5209,0.511253 -0.5209,1.861734 v 0.366559 h 3.27009 v 1.524113 h -3.21222 v 9.250792 h -1.8135 v -9.250792 h -1.22508 v -1.524113 h 1.22508 v -0.356913 q 0,-1.919611 0.95498,-2.942118 0.95499,-1.032153 2.75884,-1.032153 0.60772,0 1.09003,0.05788 0.49196,0.05788 0.89711,0.135048 z"
             style="stroke-width:8.928"
             id="path9963" /><path
             d="m 270.45736,61.612188 -6.28938,14.749176 h -1.93891 l 2.00643,-4.495171 -4.2926,-10.254005 h 1.96784 l 3.30868,7.987127 3.33762,-7.987127 z"
             style="stroke-width:8.928"
             id="path9965" /></g><g
           aria-label="A material FDroid Client"
           id="text6469"
           style="font-size:11.2889px;fill:#666666;stroke-width:8.92799;stroke-linecap:round"><path
             d="m 168.31563,89.774185 h -1.16306 l -0.80478,-2.287546 h -3.54983 l -0.80477,2.287546 h -1.10795 l 2.98759,-8.207604 h 1.45521 z m -2.30408,-3.224612 -1.43867,-4.029388 -1.44419,4.029388 z"
             style="stroke-width:8.928"
             id="path9968" /><path
             d="m 182.43227,89.774185 h -1.03628 v -3.505733 q 0,-0.396875 -0.0386,-0.76619 -0.0331,-0.369314 -0.14883,-0.589801 -0.12678,-0.237022 -0.3638,-0.35829 -0.23702,-0.121267 -0.68351,-0.121267 -0.43546,0 -0.87092,0.220486 -0.43546,0.214974 -0.87092,0.551216 0.0165,0.12678 0.0276,0.297656 0.011,0.165365 0.011,0.33073 v 3.941193 h -1.03629 v -3.505733 q 0,-0.407899 -0.0386,-0.771702 -0.0331,-0.369314 -0.14882,-0.589801 -0.12678,-0.237022 -0.36381,-0.352778 -0.23702,-0.121267 -0.6835,-0.121267 -0.42444,0 -0.85439,0.209462 -0.42443,0.209462 -0.84887,0.534679 v 4.59714 h -1.03629 v -6.157081 h 1.03629 v 0.683508 q 0.48507,-0.402388 0.96463,-0.628386 0.48507,-0.225999 1.03077,-0.225999 0.62839,0 1.06385,0.264584 0.44097,0.264584 0.65594,0.733117 0.62839,-0.529167 1.14653,-0.760678 0.51815,-0.237023 1.10795,-0.237023 1.01423,0 1.49379,0.617362 0.48507,0.61185 0.48507,1.714281 z"
             style="stroke-width:8.928"
             id="path9970" /><path
             d="m 189.21223,89.774185 h -1.03078 v -0.655947 q -0.1378,0.09371 -0.37482,0.264584 -0.23151,0.165365 -0.452,0.264584 -0.25907,0.126779 -0.59531,0.209462 -0.33624,0.08819 -0.78824,0.08819 -0.83234,0 -1.41111,-0.551216 -0.57878,-0.551216 -0.57878,-1.4056 0,-0.700044 0.29766,-1.129993 0.30316,-0.43546 0.85989,-0.683507 0.56224,-0.248047 1.35048,-0.336242 0.78824,-0.08819 1.69223,-0.132292 V 85.54636 q 0,-0.352778 -0.12678,-0.584289 -0.12126,-0.231511 -0.35277,-0.363803 -0.22049,-0.126779 -0.52917,-0.170876 -0.30868,-0.0441 -0.64492,-0.0441 -0.4079,0 -0.90951,0.110243 -0.50161,0.104731 -1.03629,0.308681 h -0.0551 v -1.052822 q 0.30317,-0.08268 0.87644,-0.181901 0.57326,-0.09922 1.12999,-0.09922 0.65043,0 1.12999,0.110243 0.48507,0.104731 0.83785,0.363803 0.34726,0.253559 0.52917,0.655946 0.1819,0.402388 0.1819,0.997701 z m -1.03078,-1.515843 V 86.54406 q -0.47404,0.02756 -1.11896,0.08268 -0.63941,0.05512 -1.01424,0.159852 -0.44649,0.12678 -0.72209,0.396876 -0.27561,0.264583 -0.27561,0.733117 0,0.529167 0.3197,0.799263 0.31971,0.264583 0.97566,0.264583 0.5457,0 0.9977,-0.209462 0.45199,-0.214974 0.83784,-0.51263 z"
             style="stroke-width:8.928"
             id="path9972" /><path
             d="m 194.40468,89.719064 q -0.29214,0.07717 -0.63941,0.126779 -0.34175,0.04961 -0.61185,0.04961 -0.94258,0 -1.43316,-0.507119 -0.49058,-0.507118 -0.49058,-1.626087 v -3.274222 h -0.70005 v -0.870921 h 0.70005 v -1.769403 h 1.03628 v 1.769403 h 2.13872 v 0.870921 h -2.13872 v 2.805689 q 0,0.48507 0.0221,0.760678 0.022,0.270096 0.15434,0.507118 0.12127,0.220487 0.33073,0.325218 0.21498,0.09922 0.65044,0.09922 0.25356,0 0.52916,-0.07166 0.27561,-0.07717 0.39688,-0.126779 h 0.0551 z"
             style="stroke-width:8.928"
             id="path9974" /><path
             d="m 200.80981,86.803132 h -4.53651 q 0,0.567752 0.17088,0.992188 0.17088,0.418924 0.46853,0.68902 0.28664,0.264584 0.678,0.396876 0.39687,0.132291 0.87092,0.132291 0.62839,0 1.26228,-0.248047 0.63941,-0.253559 0.90951,-0.496094 h 0.0551 v 1.129992 q -0.52365,0.220487 -1.06936,0.369315 -0.5457,0.148828 -1.14653,0.148828 -1.53238,0 -2.39227,-0.826823 -0.8599,-0.832336 -0.8599,-2.359204 0,-1.510332 0.82131,-2.397789 0.82683,-0.887458 2.17179,-0.887458 1.24575,0 1.91823,0.727605 0.678,0.727605 0.678,2.06706 z m -1.00873,-0.793751 q -0.006,-0.815799 -0.41341,-1.262284 -0.40238,-0.446485 -1.22921,-0.446485 -0.83233,0 -1.32843,0.490582 -0.49058,0.490582 -0.55673,1.218187 z"
             style="stroke-width:8.928"
             id="path9976" /><path
             d="m 206.22275,84.747097 h -0.0551 q -0.23152,-0.05512 -0.452,-0.07717 -0.21498,-0.02756 -0.51263,-0.02756 -0.47956,0 -0.92605,0.214974 -0.44648,0.209462 -0.85989,0.545704 v 4.371141 h -1.03629 v -6.157081 h 1.03629 v 0.909506 q 0.61736,-0.496094 1.08589,-0.700044 0.47405,-0.209462 0.96463,-0.209462 0.2701,0 0.39136,0.01654 0.12127,0.01102 0.36381,0.04961 z"
             style="stroke-width:8.928"
             id="path9978" /><path
             d="m 208.31186,82.586331 h -1.16858 V 81.51146 h 1.16858 z m -0.0661,7.187854 h -1.03629 v -6.157081 h 1.03629 z"
             style="stroke-width:8.928"
             id="path9980" /><path
             d="m 215.08078,89.774185 h -1.03077 v -0.655947 q -0.1378,0.09371 -0.37483,0.264584 -0.23151,0.165365 -0.45199,0.264584 -0.25907,0.126779 -0.59532,0.209462 -0.33624,0.08819 -0.78823,0.08819 -0.83234,0 -1.41112,-0.551216 -0.57877,-0.551216 -0.57877,-1.4056 0,-0.700044 0.29765,-1.129993 0.30317,-0.43546 0.8599,-0.683507 0.56224,-0.248047 1.35048,-0.336242 0.78824,-0.08819 1.69223,-0.132292 V 85.54636 q 0,-0.352778 -0.12678,-0.584289 -0.12127,-0.231511 -0.35278,-0.363803 -0.22048,-0.126779 -0.52916,-0.170876 -0.30869,-0.0441 -0.64493,-0.0441 -0.4079,0 -0.9095,0.110243 -0.50161,0.104731 -1.03629,0.308681 h -0.0551 v -1.052822 q 0.30317,-0.08268 0.87643,-0.181901 0.57327,-0.09922 1.13,-0.09922 0.65043,0 1.12999,0.110243 0.48507,0.104731 0.83785,0.363803 0.34726,0.253559 0.52916,0.655946 0.1819,0.402388 0.1819,0.997701 z m -1.03077,-1.515843 V 86.54406 q -0.47404,0.02756 -1.11897,0.08268 -0.63941,0.05512 -1.01423,0.159852 -0.44649,0.12678 -0.7221,0.396876 -0.27561,0.264583 -0.27561,0.733117 0,0.529167 0.31971,0.799263 0.31971,0.264583 0.97565,0.264583 0.54571,0 0.9977,-0.209462 0.452,-0.214974 0.83785,-0.51263 z"
             style="stroke-width:8.928"
             id="path9982" /><path
             d="m 218.1235,89.774185 h -1.03629 v -8.576918 h 1.03629 z"
             style="stroke-width:8.928"
             id="path9984" /><path
             d="m 229.46752,82.536721 h -4.15066 v 2.315107 h 3.56637 v 0.97014 h -3.56637 v 3.952217 h -1.0914 v -8.207604 h 5.24206 z"
             style="stroke-width:8.928"
             id="path9986" /><path
             d="m 237.64756,85.678651 q 0,1.118969 -0.49058,2.028475 -0.48507,0.909506 -1.29536,1.411112 -0.56224,0.347266 -1.25677,0.501607 -0.68902,0.15434 -1.81901,0.15434 h -2.07258 v -8.207604 h 2.05053 q 1.20165,0 1.9072,0.176389 0.71107,0.170877 1.20165,0.474046 0.83785,0.523655 1.30639,1.394576 0.46853,0.870921 0.46853,2.067059 z m -1.14102,-0.01654 q 0,-0.964628 -0.33624,-1.626087 -0.33624,-0.661459 -1.00321,-1.041798 -0.48507,-0.275608 -1.03078,-0.380339 -0.5457,-0.110243 -1.30638,-0.110243 h -1.02526 v 6.33347 h 1.02526 q 0.78824,0 1.37253,-0.115755 0.5898,-0.115755 1.08038,-0.429948 0.61185,-0.391364 0.91502,-1.030774 0.30868,-0.63941 0.30868,-1.598526 z"
             style="stroke-width:8.928"
             id="path9988" /><path
             d="m 243.17074,84.747097 h -0.0551 q -0.23151,-0.05512 -0.45199,-0.07717 -0.21498,-0.02756 -0.51263,-0.02756 -0.47956,0 -0.92605,0.214974 -0.44648,0.209462 -0.85989,0.545704 v 4.371141 h -1.03629 v -6.157081 h 1.03629 v 0.909506 q 0.61736,-0.496094 1.08589,-0.700044 0.47405,-0.209462 0.96463,-0.209462 0.27009,0 0.39136,0.01654 0.12127,0.01102 0.3638,0.04961 z"
             style="stroke-width:8.928"
             id="path9990" /><path
             d="m 249.39397,86.698401 q 0,1.504819 -0.7717,2.37574 -0.7717,0.870921 -2.06706,0.870921 -1.30638,0 -2.07808,-0.870921 -0.76619,-0.870921 -0.76619,-2.37574 0,-1.504819 0.76619,-2.37574 0.7717,-0.876434 2.07808,-0.876434 1.29536,0 2.06706,0.876434 0.7717,0.870921 0.7717,2.37574 z m -1.06936,0 q 0,-1.196139 -0.46853,-1.774915 -0.46853,-0.584289 -1.30087,-0.584289 -0.84336,0 -1.31189,0.584289 -0.46302,0.578776 -0.46302,1.774915 0,1.157553 0.46853,1.758378 0.46853,0.595313 1.30638,0.595313 0.82682,0 1.29536,-0.589801 0.47404,-0.595313 0.47404,-1.76389 z"
             style="stroke-width:8.928"
             id="path9992" /><path
             d="m 252.11147,82.586331 h -1.16858 V 81.51146 h 1.16858 z m -0.0661,7.187854 h -1.03628 v -6.157081 h 1.03628 z"
             style="stroke-width:8.928"
             id="path9994" /><path
             d="m 259.08986,89.774185 h -1.03629 v -0.644922 q -0.44648,0.385851 -0.93155,0.600825 -0.48507,0.214974 -1.05282,0.214974 -1.10243,0 -1.75287,-0.848872 -0.64492,-0.848873 -0.64492,-2.353692 0,-0.782726 0.22049,-1.394576 0.22599,-0.61185 0.60633,-1.041798 0.37483,-0.418924 0.87092,-0.63941 0.50161,-0.220487 1.03629,-0.220487 0.48507,0 0.8599,0.104731 0.37482,0.09922 0.78823,0.314193 v -2.667884 h 1.03629 z m -1.03629,-1.515843 v -3.533294 q -0.41892,-0.187413 -0.74965,-0.259071 -0.33073,-0.07166 -0.72209,-0.07166 -0.87092,0 -1.35599,0.606337 -0.48507,0.606337 -0.48507,1.719793 0,1.09692 0.37482,1.670184 0.37483,0.567753 1.20165,0.567753 0.44098,0 0.89297,-0.192926 0.452,-0.198438 0.84336,-0.507118 z"
             style="stroke-width:8.928"
             id="path9996" /><path
             d="m 271.51978,89.178872 q -0.30317,0.132292 -0.55122,0.248047 -0.24254,0.115756 -0.63941,0.242535 -0.33624,0.104731 -0.73312,0.176389 -0.39136,0.07717 -0.86541,0.07717 -0.89297,0 -1.62608,-0.248047 -0.72761,-0.253559 -1.2678,-0.788238 -0.52917,-0.523655 -0.82682,-1.32843 -0.29766,-0.810288 -0.29766,-1.879647 0,-1.014237 0.28663,-1.8135 0.28663,-0.799263 0.82683,-1.350478 0.52365,-0.53468 1.26228,-0.8158 0.74414,-0.28112 1.64814,-0.28112 0.66145,0 1.3174,0.159853 0.66146,0.159852 1.46624,0.56224 v 1.295357 h -0.0827 q -0.67799,-0.567752 -1.34496,-0.826824 -0.66697,-0.259071 -1.42765,-0.259071 -0.62288,0 -1.12448,0.20395 -0.4961,0.198437 -0.88746,0.622874 -0.38034,0.413411 -0.59531,1.04731 -0.20947,0.628386 -0.20947,1.455209 0,0.865409 0.23152,1.488283 0.23702,0.622874 0.60633,1.014237 0.38585,0.4079 0.89848,0.606338 0.51815,0.192925 1.09141,0.192925 0.78824,0 1.47726,-0.270095 0.68902,-0.270096 1.28985,-0.810288 h 0.0772 z"
             style="stroke-width:8.928"
             id="path9998" /><path
             d="m 274.02781,89.774185 h -1.03629 v -8.576918 h 1.03629 z"
             style="stroke-width:8.928"
             id="path10000" /><path
             d="m 277.19178,82.586331 h -1.16857 V 81.51146 h 1.16857 z m -0.0661,7.187854 h -1.03629 v -6.157081 h 1.03629 z"
             style="stroke-width:8.928"
             id="path10002" /><path
             d="m 284.33004,86.803132 h -4.53651 q 0,0.567752 0.17088,0.992188 0.17087,0.418924 0.46853,0.68902 0.28663,0.264584 0.67799,0.396876 0.39688,0.132291 0.87093,0.132291 0.62838,0 1.26228,-0.248047 0.63941,-0.253559 0.90951,-0.496094 h 0.0551 v 1.129992 q -0.52366,0.220487 -1.06936,0.369315 -0.5457,0.148828 -1.14653,0.148828 -1.53238,0 -2.39228,-0.826823 -0.85989,-0.832336 -0.85989,-2.359204 0,-1.510332 0.82131,-2.397789 0.82682,-0.887458 2.17179,-0.887458 1.24575,0 1.91823,0.727605 0.678,0.727605 0.678,2.06706 z m -1.00873,-0.793751 q -0.006,-0.815799 -0.41341,-1.262284 -0.40239,-0.446485 -1.22921,-0.446485 -0.83234,0 -1.32843,0.490582 -0.49059,0.490582 -0.55673,1.218187 z"
             style="stroke-width:8.928"
             id="path10004" /><path
             d="m 291.04935,89.774185 h -1.03628 v -3.505733 q 0,-0.424436 -0.0496,-0.79375 -0.0496,-0.374827 -0.1819,-0.584289 -0.13781,-0.231511 -0.39688,-0.341754 -0.25907,-0.115755 -0.67248,-0.115755 -0.42444,0 -0.88746,0.209462 -0.46302,0.209462 -0.88746,0.534679 v 4.59714 H 285.901 v -6.157081 h 1.03628 v 0.683508 q 0.48507,-0.402388 1.00322,-0.628386 0.51814,-0.225999 1.06384,-0.225999 0.9977,0 1.52136,0.600826 0.52365,0.600825 0.52365,1.730817 z"
             style="stroke-width:8.928"
             id="path10006" /><path
             d="m 296.24181,89.719064 q -0.29214,0.07717 -0.63941,0.126779 -0.34175,0.04961 -0.61185,0.04961 -0.94258,0 -1.43316,-0.507119 -0.49058,-0.507118 -0.49058,-1.626087 v -3.274222 h -0.70005 v -0.870921 h 0.70005 v -1.769403 h 1.03628 v 1.769403 h 2.13872 v 0.870921 h -2.13872 v 2.805689 q 0,0.48507 0.022,0.760678 0.0221,0.270096 0.15434,0.507118 0.12127,0.220487 0.33073,0.325218 0.21498,0.09922 0.65044,0.09922 0.25356,0 0.52916,-0.07166 0.27561,-0.07717 0.39688,-0.126779 h 0.0551 z"
             style="stroke-width:8.928"
             id="path10008" /></g></g></g><rect
       style="fill:#f7b27c;fill-opacity:1;stroke-width:8.92799;stroke-linecap:round"
       id="rect7533"
       width="3.5483871"
       height="75.580643"
       x="136.6129"
       y="57.459679"
       ry="1.7741935" /></g></svg>
